<svg xmlns="http://www.w3.org/2000/svg" version="1.1" xmlns:xlink="http://www.w3.org/1999/xlink" xmlns:svgjs="http://svgjs.dev/svgjs" width="1000" height="126" viewBox="0 0 1000 126"><g transform="matrix(1,0,0,1,-0.60603626082451,-0.4714305176455511)"><svg viewBox="0 0 396 50" data-background-color="#fafafa" preserveAspectRatio="xMidYMid meet" height="126" width="1000" xmlns="http://www.w3.org/2000/svg" xmlns:xlink="http://www.w3.org/1999/xlink"><g id="tight-bounds" transform="matrix(1,0,0,1,0.2399903592865087,0.18707560224029862)"><svg viewBox="0 0 395.5199999999999 49.62584879551941" height="49.62584879551941" width="395.5199999999999"><g><svg viewBox="0 0 653.5411148951586 81.99972833091202" height="49.62584879551941" width="395.5199999999999"><g transform="matrix(1,0,0,1,258.0211148951585,12.21727954194812)"><svg viewBox="0 0 395.52000000000004 57.56516924701578" height="57.56516924701578" width="395.52000000000004"><g id="textblocktransform"><svg viewBox="0 0 395.52000000000004 57.56516924701578" height="57.56516924701578" width="395.52000000000004" id="textblock"><g><svg viewBox="0 0 395.52000000000004 57.56516924701578" height="57.56516924701578" width="395.52000000000004"><g transform="matrix(1,0,0,1,0,0)"><svg width="395.52000000000004" viewBox="2.7300000190734863 -37.66800308227539 272.53997802734375 39.66800308227539" height="57.56516924701578" data-palette-color="#130912"><path d="M19.87-6.84L19.87-6.84Q20.26-6.2 20.46-5.62 20.65-5.03 20.65-4.79L20.65-4.79Q20.65-4.44 20.53-4.22 20.41-4 20.21-3.76L20.21-3.76Q18.26-2.93 16.33-2.22 14.4-1.51 12.4-0.83L12.4-0.83Q11.91-0.68 11.45-0.51 10.99-0.34 10.45-0.24L10.45-0.24Q10.35-0.15 10.11-0.05 9.86 0.05 9.55 0.15 9.23 0.24 8.94 0.32 8.64 0.39 8.54 0.39L8.54 0.39Q8.45 0.15 8.35 0.1 8.25 0.05 8.15 0L8.15 0Q7.91 0 7.84 0.17 7.76 0.34 7.52 0.44L7.52 0.44Q7.28 0.44 7.08 0.46 6.88 0.49 6.74 0.39L6.74 0.39Q6.35 0.49 6.03 0.73 5.71 0.98 5.32 1.07L5.32 1.07Q4.59 0.88 4.42 0.9 4.25 0.93 4.05 0.98L4.05 0.98Q3.71 0.68 3.74 0.15 3.76-0.39 3.47-0.73L3.47-0.73Q3.47-1.37 3.37-1.44 3.27-1.51 3.27-1.61L3.27-1.61Q3.27-1.95 3.32-2.25 3.37-2.54 3.27-2.88L3.27-2.88Q3.47-3.71 3.42-4.49 3.37-5.27 3.47-6.05L3.47-6.05Q3.47-6.3 3.49-6.52 3.52-6.74 3.52-6.98L3.52-6.98Q3.52-7.71 3.61-7.89 3.71-8.06 3.71-8.3L3.71-8.3Q3.71-8.64 3.69-8.96 3.66-9.28 3.66-9.67L3.66-9.67Q3.66-10.35 3.69-11.01 3.71-11.67 3.71-12.4L3.71-12.4Q3.71-14.26 3.47-16.11 3.22-17.97 3.22-19.82L3.22-19.82Q3.22-22.07 2.98-24.27 2.73-26.46 2.73-28.71L2.73-28.71Q2.73-29.1 2.73-29.81 2.73-30.52 2.73-31.27 2.73-32.03 2.76-32.71 2.78-33.4 2.83-33.69L2.83-33.69Q2.83-33.74 3.13-33.84 3.42-33.94 3.52-33.94L3.52-33.94Q3.76-33.94 3.91-33.81 4.05-33.69 4.25-33.59L4.25-33.59Q5.13-33.69 5.3-33.76 5.47-33.84 5.57-33.84L5.57-33.84Q5.86-33.84 6.03-33.69 6.2-33.54 6.3-33.54L6.3-33.54Q7.13-33.74 7.2-33.59 7.28-33.45 7.52-33.45L7.52-33.45Q8.15-33.64 8.3-33.59 8.45-33.54 8.59-33.54L8.59-33.54Q8.84-33.54 9.13-33.72 9.42-33.89 9.67-33.98L9.67-33.98Q10.5-34.23 11.04-34.47L11.04-34.47Q11.77-34.91 12.13-35.06 12.5-35.21 12.89-35.4L12.89-35.4Q13.72-35.74 14.48-36.11 15.23-36.47 16.06-36.87L16.06-36.87Q16.21-36.87 16.38-36.89 16.55-36.91 16.65-37.01L16.65-37.01Q16.8-36.96 16.97-36.96 17.14-36.96 17.29-36.96L17.29-36.96Q17.77-36.77 17.92-36.72L17.92-36.72Q18.12-36.43 18.29-36.16 18.46-35.89 18.7-35.64L18.7-35.64Q18.95-35.21 19.09-35.21L19.09-35.21Q19.09-35.06 18.95-34.89 18.8-34.72 18.8-34.57L18.8-34.57Q19.19-33.89 19.43-33.3 19.68-32.71 19.68-32.47L19.68-32.47Q19.68-32.13 19.58-31.91 19.48-31.69 19.34-31.45L19.34-31.45Q17.48-30.57 15.6-29.71 13.72-28.86 11.77-28.03L11.77-28.03Q11.28-27.83 10.84-27.61 10.4-27.39 9.86-27.29L9.86-27.29Q9.77-27.2 9.42-27.12 9.08-27.05 8.89-27.05L8.89-27.05Q8.98-26.22 9.01-25.42 9.03-24.61 9.08-23.78L9.08-23.78Q9.13-23.1 9.25-22.34 9.38-21.58 9.47-20.85L9.47-20.85Q11.08-21.53 12.67-22.22 14.26-22.9 15.87-23.58L15.87-23.58Q16.16-23.54 16.48-23.49 16.8-23.44 17.09-23.34L17.09-23.34Q17.19-23.24 17.29-23.1 17.38-22.95 17.53-22.85L17.53-22.85Q17.48-22.61 17.85-22.12 18.21-21.63 18.21-21.39L18.21-21.39Q18.21-21 18.31-20.92 18.41-20.85 18.51-20.51L18.51-20.51Q18.55-20.02 18.51-19.97L18.51-19.97Q18.75-19.73 18.9-19.48 19.04-19.24 19.04-18.9L19.04-18.9Q18.36-18.07 17.68-17.8 16.99-17.53 16.31-17.24L16.31-17.24Q16.06-17.14 15.8-16.97 15.53-16.8 15.28-16.7L15.28-16.7Q14.89-16.55 14.53-16.43 14.16-16.31 13.77-16.11L13.77-16.11Q13.13-15.77 12.48-15.36 11.82-14.94 11.13-14.79L11.13-14.79Q10.6-14.65 10.42-14.48 10.25-14.31 9.86-14.01L9.86-14.01 9.86-12.7 9.86-10.25Q9.86-9.77 9.86-9.25 9.86-8.74 9.81-8.2L9.81-8.2Q9.72-7.71 9.72-7.37L9.72-7.37 9.72-6.59Q9.96-6.69 10.21-6.76 10.45-6.84 10.69-6.93L10.69-6.93Q10.89-6.98 11.06-6.98 11.23-6.98 11.43-7.08L11.43-7.08Q11.67-7.13 11.82-7.18 11.96-7.23 12.16-7.32L12.16-7.32Q12.89-7.71 13.28-7.84 13.67-7.96 14.06-8.11L14.06-8.11Q14.89-8.4 15.67-8.72 16.46-9.03 17.24-9.33L17.24-9.33Q17.72-9.23 17.92-9.47L17.92-9.47Q18.16-9.42 18.33-9.38 18.51-9.33 18.75-9.33L18.75-9.33Q19.34-8.79 19.48-8.5 19.63-8.2 19.87-7.96L19.87-7.96Q20.12-7.52 20.21-7.52L20.21-7.52Q20.21-7.42 20.07-7.2 19.92-6.98 19.87-6.84ZM34.42-23.83L34.42-23.83Q34.71-24.51 34.89-24.68 35.06-24.85 35.06-25.24L35.06-25.24Q35.54-26.22 35.91-27.27 36.28-28.32 36.77-29.35L36.77-29.35Q37.2-30.42 37.52-31.47 37.84-32.52 38.28-33.59L38.28-33.59Q38.33-33.79 38.47-34.18 38.62-34.57 38.77-35.01 38.91-35.45 39.06-35.82 39.21-36.18 39.3-36.33L39.3-36.33Q39.4-36.47 39.48-36.6 39.55-36.72 39.6-36.87L39.6-36.87Q39.89-36.87 39.99-36.84 40.09-36.82 40.23-36.82L40.23-36.82Q40.57-36.82 40.65-36.74 40.72-36.67 40.87-36.57L40.87-36.57Q41.4-36.52 41.72-36.43 42.04-36.33 42.28-36.08L42.28-36.08Q42.97-35.64 43.38-35.55 43.8-35.45 44.04-35.11L44.04-35.11Q45.07-35.01 45.07-34.03L45.07-34.03Q44.82-33.35 44.5-32.69 44.19-32.03 43.94-31.4L43.94-31.4Q43.5-29.98 42.97-28.69 42.43-27.39 41.79-26.12L41.79-26.12Q41.35-25.15 40.94-24.12 40.52-23.1 40.04-22.12L40.04-22.12Q39.79-21.29 39.55-20.75L39.55-20.75Q39.26-20.12 38.91-19.48 38.57-18.85 38.33-18.16L38.33-18.16Q38.08-17.92 37.94-17.6 37.79-17.29 37.6-16.99L37.6-16.99Q37.69-16.55 37.96-16.19 38.23-15.82 38.47-15.38L38.47-15.38Q38.52-15.04 38.67-14.72 38.82-14.4 38.96-14.06L38.96-14.06Q39.55-12.99 40.11-11.65 40.67-10.3 41.26-9.33L41.26-9.33Q41.89-8.35 42.21-7.57 42.53-6.79 43.02-5.81L43.02-5.81Q43.11-5.57 43.26-5.4 43.41-5.22 43.55-4.98L43.55-4.98 43.99-4.1Q44.19-3.66 44.46-3.25 44.72-2.83 44.97-2.39L44.97-2.39Q44.97-2.15 45.02-1.98 45.07-1.81 45.07-1.56L45.07-1.56Q44.72-0.98 44.6-0.98 44.48-0.98 44.33-0.88L44.33-0.88Q43.45-0.54 43.21 0.39L43.21 0.39Q42.97 0.49 42.72 0.54 42.48 0.59 42.48 0.93L42.48 0.93Q41.94 1.27 41.55 0.98L41.55 0.98Q41.31 1.22 41.11 1.54 40.92 1.86 40.57 2L40.57 2Q40.18 1.76 40.01 1.42 39.84 1.07 39.55 0.78L39.55 0.78Q39.5 0.44 39.35 0.2 39.21-0.05 39.16-0.34L39.16-0.34Q39.06-0.49 38.89-0.88 38.72-1.27 38.52-1.66 38.33-2.05 38.13-2.37 37.94-2.69 37.84-2.78L37.84-2.78Q37.45-3.56 37.18-4.35 36.91-5.13 36.52-5.96L36.52-5.96Q35.94-7.28 35.32-8.57 34.71-9.86 34.18-11.13L34.18-11.13Q33.93-11.08 33.64-10.62 33.35-10.16 33.1-9.57 32.86-8.98 32.66-8.42 32.47-7.86 32.42-7.57L32.42-7.57Q32.18-7.23 32.08-6.91 31.98-6.59 31.74-6.35L31.74-6.35Q31.49-5.52 31.15-4.76 30.81-4 30.42-3.22L30.42-3.22Q30.42-3.08 30.37-2.95 30.32-2.83 30.32-2.69L30.32-2.69Q29.78-1.81 29.25-0.9 28.71 0 28.27 0.98L28.27 0.98Q28.12 1.12 27.93 1.27 27.73 1.42 27.49 1.42L27.49 1.42Q27.15 1.42 26.85 1.15 26.56 0.88 26.32 0.73L26.32 0.73Q25.44 0.39 25.17 0.02 24.9-0.34 24.22-0.29L24.22-0.29Q23.97-0.63 23.87-0.59 23.78-0.54 23.63-0.54L23.63-0.54Q23.24-0.68 23.14-0.9 23.04-1.12 22.95-1.27L22.95-1.27Q22.95-1.76 22.9-1.9L22.9-1.9Q22.95-2.1 23.02-2.25 23.09-2.39 23.14-2.59L23.14-2.59Q23.68-3.27 23.95-4 24.22-4.74 24.75-5.37L24.75-5.37Q24.9-5.81 25.14-6.2 25.39-6.59 25.49-7.08L25.49-7.08Q25.83-7.52 26.07-7.96 26.32-8.4 26.46-8.94L26.46-8.94Q26.56-9.03 26.61-9.18 26.66-9.33 26.76-9.42L26.76-9.42Q26.9-9.86 27.1-10.28 27.29-10.69 27.39-11.13L27.39-11.13Q27.49-11.18 27.78-11.74 28.07-12.3 28.39-12.96 28.71-13.62 28.98-14.23 29.25-14.84 29.34-15.04L29.34-15.04Q29.68-15.72 30.03-16.21 30.37-16.7 30.61-17.48L30.61-17.48Q30.47-17.77 30.39-18.07 30.32-18.36 30.08-18.6L30.08-18.6Q30.08-19.14 29.73-19.65 29.39-20.17 29.29-20.7L29.29-20.7Q28.9-21.34 28.68-22.09 28.46-22.85 28.22-23.54L28.22-23.54Q28.17-23.73 28.07-23.93 27.98-24.12 27.88-24.32L27.88-24.32Q27.44-25.15 27.05-25.9 26.66-26.66 26.22-27.44L26.22-27.44Q25.97-27.93 25.58-28.59 25.19-29.25 24.95-29.74L24.95-29.74Q24.56-30.66 24.22-31.57 23.87-32.47 23.48-33.4L23.48-33.4Q23.48-33.79 23.34-34.23 23.19-34.67 23.19-35.06L23.19-35.06Q23.48-35.35 23.65-35.45 23.83-35.55 23.92-35.69L23.92-35.69Q24.31-35.69 24.66-36.04L24.66-36.04Q25.14-36.08 25.63-36.21 26.12-36.33 26.56-36.62L26.56-36.62Q27.05-36.62 27.34-36.79 27.63-36.96 28.02-36.96L28.02-36.96Q28.42-36.87 28.51-36.77 28.61-36.67 28.76-36.57L28.76-36.57Q30.17-33.4 31.59-30.22 33.01-27.05 34.42-23.83ZM52.97-35.5L52.97-35.5Q53.17-35.55 53.32-35.64 53.46-35.74 53.66-35.74L53.66-35.74Q53.8-35.69 53.88-35.55 53.95-35.4 54.1-35.3L54.1-35.3Q54.24-35.4 54.37-35.5 54.49-35.6 54.63-35.64L54.63-35.64Q55.12-35.5 55.17-35.16L55.17-35.16Q55.41-35.06 55.61-34.94 55.81-34.81 56.05-34.77L56.05-34.77Q56.15-34.57 56.29-34.47 56.44-34.38 56.64-34.18L56.64-34.18Q57.12-34.08 57.93-33.64 58.74-33.2 59.22-32.96L59.22-32.96Q59.71-32.71 60.2-32.47 60.69-32.23 61.13-31.93L61.13-31.93Q61.57-31.69 62.01-31.37 62.45-31.05 62.93-30.86L62.93-30.86Q63.37-30.32 64.06-30.18 64.74-30.03 65.28-29.64L65.28-29.64Q65.72-29.39 66.11-29.13 66.5-28.86 66.89-28.61L66.89-28.61Q67.04-28.37 67.26-28.22 67.48-28.08 67.67-27.83L67.67-27.83Q68.65-27.29 68.79-27L68.79-27Q68.94-26.9 69.23-26.71 69.53-26.51 69.82-26.29 70.11-26.07 70.36-25.85 70.6-25.63 70.65-25.44L70.65-25.44Q70.45-25 70.45-24.73 70.45-24.46 70.26-24.27L70.26-24.27Q70.55-23.88 70.55-23.54L70.55-23.54Q70.31-22.95 69.72-22.56L69.72-22.56Q69.58-22.17 69.26-21.95 68.94-21.73 68.84-21.34L68.84-21.34Q68.45-21.09 68.38-20.95 68.31-20.8 68.21-20.65L68.21-20.65Q67.28-19.68 66.47-18.97 65.67-18.26 64.99-17.43L64.99-17.43Q64.5-17.19 64.16-16.82 63.81-16.46 63.52-16.02L63.52-16.02Q63.13-15.63 62.76-15.26 62.4-14.89 62.01-14.55L62.01-14.55Q61.91-14.36 61.69-14.23 61.47-14.11 61.37-13.87L61.37-13.87Q60.83-13.62 60.49-13.18 60.15-12.74 59.66-12.45L59.66-12.45 59.32-11.96Q59.17-11.87 58.91-11.65 58.64-11.43 58.37-11.16 58.1-10.89 57.91-10.64 57.71-10.4 57.66-10.25L57.66-10.25Q57.51-10.21 57.2-9.96 56.88-9.72 56.56-9.42 56.25-9.13 55.98-8.84 55.71-8.54 55.66-8.45L55.66-8.45 55.17-8.11Q55.22-6.79 55.24-5.44 55.27-4.1 55.27-2.78L55.27-2.78 55.27-1.12 54.93-0.68Q54.68-0.68 54.54-0.78 54.39-0.88 54.19-0.88L54.19-0.88Q54-0.88 53.83-0.68 53.66-0.49 53.51-0.39L53.51-0.39Q53.17-0.34 52.95-0.22 52.73-0.1 52.49 0L52.49 0Q52.19-0.15 51.9-0.15L51.9-0.15Q51.26 0 51.29-0.1 51.31-0.2 51.07-0.2L51.07-0.2Q50.68 0.2 50.58 0.2L50.58 0.2Q50.39 0.2 50.21 0.24 50.04 0.29 49.85 0.29L49.85 0.29Q49.65-0.1 49.53-0.51 49.41-0.93 49.07-1.32L49.07-1.32Q49.21-1.81 49.02-2L49.02-2Q49.31-2.54 49.26-3.22 49.21-3.91 49.21-4.49L49.21-4.49Q49.21-4.83 49.24-5.15 49.26-5.47 49.26-5.76L49.26-5.76Q49.26-6.35 49.16-6.96 49.07-7.57 49.07-8.2L49.07-8.2Q49.07-9.67 49.16-11.16 49.26-12.65 49.26-14.11L49.26-14.11Q49.26-14.94 49.19-15.82 49.12-16.7 49.12-17.53L49.12-17.53Q49.12-18.07 49.16-18.53 49.21-18.99 49.26-19.43L49.26-19.43Q49.26-21.68 49.34-23.75 49.41-25.83 49.41-27.88L49.41-27.88Q49.41-28.56 49.38-29.17 49.36-29.79 49.36-30.47L49.36-30.47Q49.36-30.81 49.41-31.15 49.46-31.49 49.46-31.84L49.46-31.84Q49.6-33.35 49.6-34.86L49.6-34.86 49.56-35.64Q49.75-35.94 50.14-35.94L50.14-35.94Q50.68-35.94 50.97-35.6L50.97-35.6Q51.31-35.64 51.63-35.72 51.95-35.79 52.24-35.79L52.24-35.79Q52.68-35.79 52.97-35.5ZM55.95-27.88L55.85-27.73Q55.85-27.49 55.81-27.37 55.76-27.25 55.71-27.15L55.71-27.15Q55.71-27 55.73-26.83 55.76-26.66 55.76-26.46L55.76-26.46Q55.76-25.34 55.73-24.24 55.71-23.14 55.71-22.07L55.71-22.07 55.61-19.48Q55.61-19.24 55.66-18.95 55.71-18.65 55.71-18.41L55.71-18.41Q55.71-18.16 55.66-17.92 55.61-17.68 55.61-17.43L55.61-17.43Q55.61-16.8 55.76-16.16L55.76-16.16Q56-16.26 56.1-16.48 56.2-16.7 56.34-16.85L56.34-16.85Q57.47-17.87 58.44-18.99 59.42-20.12 60.44-21.24L60.44-21.24Q61.32-22.17 61.96-22.75 62.59-23.34 62.93-24.17L62.93-24.17Q62.1-24.71 61.23-25.27 60.35-25.83 59.37-26.22L59.37-26.22Q59.32-26.32 59.1-26.46 58.88-26.61 58.64-26.73 58.39-26.86 58.15-26.95 57.91-27.05 57.81-27.05L57.81-27.05Q57.37-27.44 56.88-27.54L56.88-27.54Q56.54-27.54 56.29-27.66 56.05-27.78 55.95-27.88L55.95-27.88ZM91.74-8.35L91.74-8.35Q92.08-7.91 92.16-7.64 92.23-7.37 92.33-7.1 92.42-6.84 92.5-6.59 92.57-6.35 92.57-6.3L92.57-6.3Q92.57-5.96 92.45-5.74 92.33-5.52 92.08-5.18L92.08-5.18Q90.13-4.44 88.22-3.74 86.32-3.03 84.32-2.34L84.32-2.34Q83.78-2.2 83.34-2.03 82.9-1.86 82.37-1.76L82.37-1.76Q82.27-1.66 82.05-1.59 81.83-1.51 81.54-1.42 81.24-1.32 80.97-1.25 80.71-1.17 80.61-1.17L80.61-1.17Q80.22-1.07 79.75-1.1 79.29-1.12 78.85-1.07L78.85-1.07Q78.61-1.03 78.51-0.83 78.41-0.63 78.29-0.42 78.17-0.2 77.92-0.02 77.68 0.15 77.24 0.15L77.24 0.15Q76.8 0.15 76.36 0.1 75.92 0.05 75.43-0.15L75.43-0.15Q75.33-0.29 75.36-0.51 75.38-0.73 75.29-0.88L75.29-0.88Q74.85-0.93 74.6-0.81 74.36-0.68 74.11-0.63L74.11-0.63Q73.97-0.83 73.89-1.1 73.82-1.37 73.63-1.56L73.63-1.56Q73.58-1.81 73.58-2.05 73.58-2.29 73.58-2.54L73.58-2.54Q73.58-2.88 73.6-3.34 73.63-3.81 73.77-4.05L73.77-4.05Q73.92-6.84 73.92-9.64 73.92-12.45 73.92-15.23L73.92-15.23Q73.92-15.48 73.92-15.94 73.92-16.41 73.89-16.89 73.87-17.38 73.85-17.8 73.82-18.21 73.77-18.41L73.77-18.41Q73.82-18.75 73.82-19.07 73.82-19.38 73.82-19.73L73.82-19.73Q73.82-20.02 73.82-20.26 73.82-20.51 73.72-20.75L73.72-20.75Q73.77-20.95 73.77-21.29L73.77-21.29Q73.77-21.53 73.72-21.78 73.67-22.02 73.67-22.27L73.67-22.27Q73.67-22.66 73.7-23.02 73.72-23.39 73.72-23.78L73.72-23.78Q73.72-25.05 73.6-26.29 73.48-27.54 73.48-28.81L73.48-28.81Q73.48-30.47 73.45-32.13 73.43-33.79 73.38-35.45L73.38-35.45Q73.58-35.94 73.58-36.28L73.58-36.28Q74.26-36.62 74.65-36.52 75.04-36.43 75.43-36.43L75.43-36.43Q75.68-36.43 75.87-36.47 76.07-36.52 76.26-36.62L76.26-36.62Q76.51-36.57 76.68-36.5 76.85-36.43 77.09-36.43L77.09-36.43Q77.82-36.57 77.9-36.47 77.97-36.38 78.12-36.28L78.12-36.28Q78.31-36.33 78.43-36.45 78.56-36.57 78.75-36.57L78.75-36.57Q79.05-36.57 79.19-36.21 79.34-35.84 79.53-35.6L79.53-35.6Q79.53-35.06 79.73-34.62L79.73-34.62Q79.83-32.62 79.8-30.66 79.78-28.71 79.92-26.76L79.92-26.76Q79.97-25.88 80.05-24.93 80.12-23.97 80.12-23.1L80.12-23.1Q80.12-21.63 80.14-20.14 80.17-18.65 80.17-17.14L80.17-17.14Q80.17-16.89 80.19-16.7 80.22-16.5 80.22-16.26L80.22-16.26Q80.22-15.67 80.17-15.14 80.12-14.6 80.12-14.06L80.12-14.06 80.12-10.25Q80.12-9.77 80.1-9.25 80.07-8.74 80.12-8.25L80.12-8.25 80.31-7.67Q80.85-7.86 81.41-8.08 81.97-8.3 82.61-8.4L82.61-8.4Q83-8.5 83.34-8.59 83.68-8.69 84.07-8.79L84.07-8.79Q84.76-9.18 85.15-9.33 85.54-9.47 85.93-9.62L85.93-9.62Q86.76-9.91 87.54-10.23 88.32-10.55 89.15-10.84L89.15-10.84Q89.54-10.74 89.79-10.94L89.79-10.94Q90.28-10.84 90.67-10.84L90.67-10.84Q91.2-10.3 91.33-10.01 91.45-9.72 91.69-9.47L91.69-9.47Q91.59-9.23 91.72-9.18 91.84-9.13 91.89-8.94L91.89-8.94Q92.08-8.84 91.94-8.67 91.79-8.5 91.74-8.35ZM118.79-19.38L118.79-19.38Q118.69-19.19 118.59-19.02 118.5-18.85 118.45-18.65L118.45-18.65Q118.64-18.46 118.81-18.24 118.98-18.02 118.98-17.77L118.98-17.77Q118.98-17.58 118.91-17.41 118.84-17.24 118.89-17.09L118.89-17.09Q118.69-16.75 118.47-16.46 118.25-16.16 118.15-15.82L118.15-15.82Q117.96-15.63 117.84-15.43 117.71-15.23 117.62-15.04L117.62-15.04Q117.37-14.94 117.3-14.72 117.23-14.5 117.03-14.36L117.03-14.36Q116.98-14.16 116.54-13.43 116.1-12.7 115.57-11.87 115.03-11.04 114.54-10.25 114.05-9.47 113.86-9.23L113.86-9.23Q113.76-8.98 113.64-8.84 113.52-8.69 113.37-8.5L113.37-8.5Q113.27-8.35 113.22-8.18 113.17-8.01 113.08-7.91L113.08-7.91Q112.98-7.71 112.86-7.57 112.73-7.42 112.64-7.18L112.64-7.18Q112.15-6.54 111.66-5.66 111.17-4.79 110.73-4.1L110.73-4.1Q110.49-3.71 110.27-3.32 110.05-2.93 109.8-2.54L109.8-2.54Q109.56-2.15 109.32-1.81 109.07-1.46 108.83-1.07L108.83-1.07Q108.44-0.78 108.14-0.37 107.85 0.05 107.46 0.34L107.46 0.34Q106.83 0.34 106.68-0.24L106.68-0.24Q106.04-0.39 106.04-0.24 106.04-0.1 106.04 0L106.04 0Q105.85 0.1 105.78 0.29 105.7 0.49 105.51 0.59L105.51 0.59Q105.12 0.49 104.85 0.27 104.58 0.05 104.09 0.1L104.09 0.1Q103.9-0.2 103.65-0.42 103.41-0.63 103.21-0.88L103.21-0.88Q103.12-1.17 102.94-1.37 102.77-1.56 102.63-1.76L102.63-1.76Q102.48-2 102.33-2.2 102.19-2.39 102.04-2.59L102.04-2.59Q101.7-3.03 101.38-3.44 101.06-3.86 100.82-4.3L100.82-4.3Q100.43-4.88 100.06-5.49 99.7-6.1 99.31-6.69L99.31-6.69Q99.11-6.98 98.92-7.28 98.72-7.57 98.57-7.86L98.57-7.86Q98.48-8.11 98.31-8.45 98.13-8.79 97.89-8.89L97.89-8.89Q97.79-9.28 97.55-9.47 97.3-9.67 97.06-9.96L97.06-9.96Q96.72-10.35 96.43-10.82 96.13-11.28 95.84-11.77L95.84-11.77Q94.86-13.13 94.01-14.45 93.15-15.77 92.32-17.19L92.32-17.19Q92.57-17.97 92.57-18.36 92.57-18.75 92.81-18.99L92.81-18.99Q92.81-19.19 92.91-19.58L92.91-19.58Q93.54-20.65 94.13-21.53L94.13-21.53Q94.67-22.36 94.89-22.9 95.11-23.44 95.35-24.02L95.35-24.02Q95.6-24.17 95.74-24.39 95.89-24.61 96.13-24.8L96.13-24.8Q96.23-25.34 96.57-25.71 96.91-26.07 97.01-26.61L97.01-26.61Q97.45-26.95 97.5-27.39L97.5-27.39Q98.13-27.83 98.28-28.56L98.28-28.56Q98.67-28.96 98.94-29.44 99.21-29.93 99.45-30.47L99.45-30.47Q100.04-30.96 100.38-31.74L100.38-31.74Q100.67-31.93 100.82-32.28 100.97-32.62 101.21-32.86L101.21-32.86Q101.6-33.5 101.82-33.91 102.04-34.33 102.28-34.77L102.28-34.77Q102.63-34.77 102.72-35.01 102.82-35.25 103.12-35.21L103.12-35.21Q103.12-35.64 103.36-35.99L103.36-35.99Q103.46-36.04 103.65-36.11 103.85-36.18 103.85-36.28L103.85-36.28Q103.75-36.87 103.9-36.96 104.04-37.06 104.14-37.16L104.14-37.16Q104.68-37.06 104.87-37.01 105.07-36.96 105.51-36.67L105.51-36.67Q106-36.67 106.19-36.47 106.39-36.28 106.63-36.18L106.63-36.18Q106.83-35.99 106.95-35.79 107.07-35.6 107.31-35.5L107.31-35.5Q107.7-34.96 108.14-34.33 108.58-33.69 108.97-33.15L108.97-33.15Q109.51-32.42 110.07-31.76 110.63-31.1 111.12-30.32L111.12-30.32Q111.27-30.08 111.66-29.47 112.05-28.86 112.54-28.17 113.03-27.49 113.42-26.93 113.81-26.37 113.95-26.27L113.95-26.27Q114.1-26.03 114.59-25.34 115.08-24.66 115.64-23.9 116.2-23.14 116.74-22.46 117.28-21.78 117.47-21.58L117.47-21.58Q118.01-20.85 118.28-20.39 118.54-19.92 118.79-19.38ZM107.61-10.21L107.61-10.21Q108.14-10.94 108.44-11.52 108.73-12.11 109.02-12.7L109.02-12.7Q109.51-13.28 109.61-13.53 109.71-13.77 109.85-14.01L109.85-14.01Q110.24-14.6 110.66-15.19 111.07-15.77 111.32-16.46L111.32-16.46Q111.61-16.65 111.76-16.94 111.9-17.24 112.2-17.48L112.2-17.48Q111.9-18.51 111.51-19.07 111.12-19.63 110.73-20.17L110.73-20.17Q110.59-20.41 110.44-20.65 110.29-20.9 110.15-21.14L110.15-21.14Q109.95-21.29 109.83-21.44 109.71-21.58 109.56-21.73L109.56-21.73Q109.46-21.97 109.27-22.36L109.27-22.36Q109.07-22.61 108.88-22.8 108.68-23 108.53-23.29L108.53-23.29Q108.34-23.49 108.05-23.83 107.75-24.17 107.44-24.58 107.12-25 106.87-25.37 106.63-25.73 106.48-25.98L106.48-25.98Q106.39-26.22 106.31-26.39 106.24-26.56 106.14-26.76L106.14-26.76Q105.9-27.1 105.65-27.37 105.41-27.64 105.17-27.98L105.17-27.98Q105.02-27.88 104.9-27.86 104.78-27.83 104.68-27.73L104.68-27.73Q104.34-27.1 103.92-26.56 103.51-26.03 103.12-25.39L103.12-25.39Q102.77-24.8 102.43-24.19 102.09-23.58 101.75-23L101.75-23Q101.5-22.66 101.28-22.34 101.06-22.02 100.82-21.63L100.82-21.63Q100.58-21.29 100.41-20.92 100.23-20.56 99.99-20.21L99.99-20.21Q99.6-19.73 99.36-19.34 99.11-18.95 98.87-18.41L98.87-18.41Q99.01-18.12 99.33-17.6 99.65-17.09 99.99-16.58 100.33-16.06 100.6-15.63 100.87-15.19 100.92-15.04L100.92-15.04Q101.31-14.7 101.55-14.28 101.8-13.87 102.19-13.48L102.19-13.48Q102.38-13.09 102.63-12.79 102.87-12.5 103.12-12.16L103.12-12.16Q103.36-11.82 103.75-11.16 104.14-10.5 104.53-9.81 104.92-9.13 105.31-8.54 105.7-7.96 105.95-7.81L105.95-7.81Q106.44-8.35 106.75-9.01 107.07-9.67 107.61-10.21ZM143.35-23.54L143.35-23.54Q142.91-22.61 142.15-21.78 141.39-20.95 140.71-20.21L140.71-20.21Q140.17-19.68 139.78-19.04 139.39-18.41 138.9-17.87L138.9-17.87Q138.51-17.43 138.12-17.07 137.73-16.7 137.39-16.26L137.39-16.26Q137.15-16.06 136.93-15.87 136.71-15.67 136.51-15.38L136.51-15.38Q137.24-13.82 138.24-12.55 139.25-11.28 140.32-10.01L140.32-10.01Q140.86-9.38 141.39-8.81 141.93-8.25 142.32-7.62L142.32-7.62Q142.66-6.88 143.03-6.52 143.4-6.15 143.69-5.76L143.69-5.76Q143.98-5.27 144.2-4.91 144.42-4.54 144.81-4.2L144.81-4.2Q144.81-3.96 145.1-3.74 145.4-3.52 145.5-3.27L145.5-3.27Q145.5-3.03 145.52-2.88 145.54-2.73 145.54-2.64L145.54-2.64Q145.4-2.25 145.03-1.98 144.67-1.71 144.37-1.42L144.37-1.42Q143.88-1.42 143.54-1.12 143.2-0.83 142.61-0.83L142.61-0.83Q142.37-0.63 142.22-0.42 142.08-0.2 141.83 0L141.83 0Q141.44 0 141.13 0.22 140.81 0.44 140.42 0.54L140.42 0.54Q139.93 0.24 139.64-0.22 139.34-0.68 138.85-0.93L138.85-0.93Q138.81-1.17 138.68-1.34 138.56-1.51 138.46-1.71L138.46-1.71Q137.63-2.64 136.9-3.66 136.17-4.69 135.44-5.71L135.44-5.71Q135.05-6.15 134.63-6.57 134.22-6.98 133.83-7.47L133.83-7.47Q133.58-7.76 133.34-8.15 133.09-8.54 132.8-8.89L132.8-8.89Q132.46-9.18 132.21-9.57 131.97-9.96 131.63-10.21L131.63-10.21Q131.19-9.96 130.85-9.57 130.51-9.18 130.07-8.89L130.07-8.89Q129.68-8.54 129.31-8.2 128.94-7.86 128.55-7.57L128.55-7.57Q128.45-6.45 128.45-5.4 128.45-4.35 128.45-3.32L128.45-3.32Q128.45-2.49 128.43-1.73 128.41-0.98 128.21-0.2L128.21-0.2Q127.97-0.15 127.75-0.46 127.53-0.78 127.28-0.83L127.28-0.83Q127.09-0.78 126.97-0.63 126.84-0.49 126.6-0.59L126.6-0.59Q126.35-0.34 125.87-0.15L125.87-0.15Q125.62-0.15 125.33-0.07 125.04 0 124.79 0L124.79 0Q124.4 0 124.26-0.1L124.26-0.1Q123.77 0.24 123.45 0.27 123.13 0.29 122.94 0.29L122.94 0.29Q122.84-0.05 122.74-0.37 122.64-0.68 122.59-1.07L122.59-1.07Q122.45-1.27 122.38-1.51 122.3-1.76 122.2-2L122.2-2Q122.25-2.15 122.25-2.34 122.25-2.54 122.25-2.73L122.25-2.73Q122.25-3.56 122.2-4.35 122.16-5.13 122.25-5.96L122.25-5.96Q122.16-6.2 122.11-6.45 122.06-6.69 122.06-6.93L122.06-6.93Q122.06-7.08 122.08-7.28 122.11-7.47 122.2-7.57L122.2-7.57Q122.06-8.2 122.03-8.91 122.01-9.62 122.01-10.25L122.01-10.25Q122.01-10.6 122.08-10.96 122.16-11.33 122.16-11.72L122.16-11.72Q122.16-12.55 122.06-13.33 121.96-14.11 121.96-14.89L121.96-14.89Q122.01-15.43 122.01-15.72L122.01-15.72Q122.01-16.02 122.06-16.31 122.11-16.6 122.01-16.89L122.01-16.89Q122.06-17.14 122.13-17.26 122.2-17.38 122.2-17.63L122.2-17.63Q122.2-18.26 122.23-18.87 122.25-19.48 122.25-20.17L122.25-20.17Q122.25-20.65 122.28-21.12 122.3-21.58 122.3-22.12L122.3-22.12Q122.3-22.56 122.38-22.95 122.45-23.34 122.5-23.73L122.5-23.73Q122.55-24.17 122.55-24.58 122.55-25 122.55-25.39L122.55-25.39Q122.55-26.42 122.55-27.47 122.55-28.52 122.45-29.54L122.45-29.54Q122.4-29.79 122.35-30.08 122.3-30.37 122.3-30.66L122.3-30.66Q122.2-31.59 122.16-32.57 122.11-33.54 121.96-34.52L121.96-34.52Q122.06-34.67 122.06-34.84 122.06-35.01 122.06-35.16L122.06-35.16Q122.06-35.4 122.06-35.62 122.06-35.84 122.01-36.08L122.01-36.08Q122.11-36.18 122.2-36.3 122.3-36.43 122.4-36.52L122.4-36.52Q122.69-36.52 123.01-36.5 123.33-36.47 123.57-36.28L123.57-36.28Q123.82-36.38 124.13-36.5 124.45-36.62 124.69-36.62L124.69-36.62Q125.09-36.62 125.28-36.43L125.28-36.43Q125.52-36.52 125.55-36.65 125.57-36.77 125.92-36.77L125.92-36.77Q126.55-36.82 126.82-36.82 127.09-36.82 127.33-36.87L127.33-36.87Q127.48-36.77 127.58-36.62 127.67-36.47 127.77-36.33L127.77-36.33Q128.84-35.94 129.5-35.23 130.16-34.52 130.99-34.03L130.99-34.03Q131.19-33.89 131.38-33.79 131.58-33.69 131.77-33.59L131.77-33.59Q132.21-33.3 132.65-32.96 133.09-32.62 133.58-32.37L133.58-32.37Q134.07-32.13 134.14-32.1 134.22-32.08 134.26-31.98L134.26-31.98Q135.34-31.59 136.19-30.93 137.05-30.27 138.02-29.74L138.02-29.74Q138.37-29.54 138.88-29.35 139.39-29.15 139.9-28.93 140.42-28.71 140.88-28.47 141.34-28.22 141.59-27.93L141.59-27.93Q142.13-27.39 142.54-27.17 142.96-26.95 143.35-26.66L143.35-26.66 143.4-25.34Q143.4-25 143.32-24.71 143.25-24.41 143.25-24.07L143.25-24.07Q143.25-23.83 143.35-23.54ZM136.66-24.8L136.66-24.8Q136.12-25.1 135.58-25.37 135.05-25.63 134.66-26.12L134.66-26.12Q134.31-26.22 133.43-26.59 132.56-26.95 131.65-27.37 130.75-27.78 129.99-28.1 129.24-28.42 129.14-28.42L129.14-28.42Q128.99-28.37 128.99-27.78 128.99-27.2 128.99-26.51 128.99-25.83 128.99-25.2 128.99-24.56 128.99-24.41L128.99-24.41Q128.99-23.49 128.94-22.61 128.89-21.73 128.8-20.8L128.8-20.8Q128.7-20.65 128.65-20.53 128.6-20.41 128.55-20.26L128.55-20.26Q128.45-19.58 128.45-18.46 128.45-17.33 128.45-16.65L128.45-16.65Q128.45-16.31 128.45-16.02 128.45-15.72 128.5-15.33L128.5-15.33Q128.75-15.33 128.84-15.45 128.94-15.58 129.19-15.67L129.19-15.67Q129.82-16.36 130.46-16.99 131.09-17.63 131.77-18.31L131.77-18.31Q132.07-18.6 132.36-18.95 132.65-19.29 133-19.53L133-19.53Q133.24-19.82 133.43-20.09 133.63-20.36 133.87-20.61L133.87-20.61Q134.56-21.34 135.29-22.05 136.02-22.75 136.51-23.63L136.51-23.63Q136.85-23.88 137.15-24.41L137.15-24.41Q136.8-24.46 136.66-24.8ZM165.17-6.84L165.17-6.84Q165.56-6.2 165.76-5.62 165.95-5.03 165.95-4.79L165.95-4.79Q165.95-4.44 165.83-4.22 165.71-4 165.51-3.76L165.51-3.76Q163.56-2.93 161.63-2.22 159.7-1.51 157.7-0.83L157.7-0.83Q157.21-0.68 156.75-0.51 156.28-0.34 155.75-0.24L155.75-0.24Q155.65-0.15 155.4-0.05 155.16 0.05 154.84 0.15 154.53 0.24 154.23 0.32 153.94 0.39 153.84 0.39L153.84 0.39Q153.74 0.15 153.65 0.1 153.55 0.05 153.45 0L153.45 0Q153.21 0 153.13 0.17 153.06 0.34 152.82 0.44L152.82 0.44Q152.57 0.44 152.38 0.46 152.18 0.49 152.04 0.39L152.04 0.39Q151.65 0.49 151.33 0.73 151.01 0.98 150.62 1.07L150.62 1.07Q149.89 0.88 149.72 0.9 149.55 0.93 149.35 0.98L149.35 0.98Q149.01 0.68 149.03 0.15 149.06-0.39 148.76-0.73L148.76-0.73Q148.76-1.37 148.67-1.44 148.57-1.51 148.57-1.61L148.57-1.61Q148.57-1.95 148.62-2.25 148.67-2.54 148.57-2.88L148.57-2.88Q148.76-3.71 148.72-4.49 148.67-5.27 148.76-6.05L148.76-6.05Q148.76-6.3 148.79-6.52 148.81-6.74 148.81-6.98L148.81-6.98Q148.81-7.71 148.91-7.89 149.01-8.06 149.01-8.3L149.01-8.3Q149.01-8.64 148.98-8.96 148.96-9.28 148.96-9.67L148.96-9.67Q148.96-10.35 148.98-11.01 149.01-11.67 149.01-12.4L149.01-12.4Q149.01-14.26 148.76-16.11 148.52-17.97 148.52-19.82L148.52-19.82Q148.52-22.07 148.28-24.27 148.03-26.46 148.03-28.71L148.03-28.71Q148.03-29.1 148.03-29.81 148.03-30.52 148.03-31.27 148.03-32.03 148.06-32.71 148.08-33.4 148.13-33.69L148.13-33.69Q148.13-33.74 148.42-33.84 148.72-33.94 148.81-33.94L148.81-33.94Q149.06-33.94 149.2-33.81 149.35-33.69 149.55-33.59L149.55-33.59Q150.42-33.69 150.6-33.76 150.77-33.84 150.86-33.84L150.86-33.84Q151.16-33.84 151.33-33.69 151.5-33.54 151.6-33.54L151.6-33.54Q152.43-33.74 152.5-33.59 152.57-33.45 152.82-33.45L152.82-33.45Q153.45-33.64 153.6-33.59 153.74-33.54 153.89-33.54L153.89-33.54Q154.14-33.54 154.43-33.72 154.72-33.89 154.97-33.98L154.97-33.98Q155.8-34.23 156.33-34.47L156.33-34.47Q157.07-34.91 157.43-35.06 157.8-35.21 158.19-35.4L158.19-35.4Q159.02-35.74 159.78-36.11 160.53-36.47 161.36-36.87L161.36-36.87Q161.51-36.87 161.68-36.89 161.85-36.91 161.95-37.01L161.95-37.01Q162.09-36.96 162.27-36.96 162.44-36.96 162.58-36.96L162.58-36.96Q163.07-36.77 163.22-36.72L163.22-36.72Q163.41-36.43 163.58-36.16 163.75-35.89 164-35.64L164-35.64Q164.24-35.21 164.39-35.21L164.39-35.21Q164.39-35.06 164.24-34.89 164.1-34.72 164.1-34.57L164.1-34.57Q164.49-33.89 164.73-33.3 164.98-32.71 164.98-32.47L164.98-32.47Q164.98-32.13 164.88-31.91 164.78-31.69 164.63-31.45L164.63-31.45Q162.78-30.57 160.9-29.71 159.02-28.86 157.07-28.03L157.07-28.03Q156.58-27.83 156.14-27.61 155.7-27.39 155.16-27.29L155.16-27.29Q155.06-27.2 154.72-27.12 154.38-27.05 154.18-27.05L154.18-27.05Q154.28-26.22 154.31-25.42 154.33-24.61 154.38-23.78L154.38-23.78Q154.43-23.1 154.55-22.34 154.67-21.58 154.77-20.85L154.77-20.85Q156.38-21.53 157.97-22.22 159.56-22.9 161.17-23.58L161.17-23.58Q161.46-23.54 161.78-23.49 162.09-23.44 162.39-23.34L162.39-23.34Q162.49-23.24 162.58-23.1 162.68-22.95 162.83-22.85L162.83-22.85Q162.78-22.61 163.14-22.12 163.51-21.63 163.51-21.39L163.51-21.39Q163.51-21 163.61-20.92 163.71-20.85 163.8-20.51L163.8-20.51Q163.85-20.02 163.8-19.97L163.8-19.97Q164.05-19.73 164.19-19.48 164.34-19.24 164.34-18.9L164.34-18.9Q163.66-18.07 162.97-17.8 162.29-17.53 161.61-17.24L161.61-17.24Q161.36-17.14 161.09-16.97 160.82-16.8 160.58-16.7L160.58-16.7Q160.19-16.55 159.82-16.43 159.46-16.31 159.07-16.11L159.07-16.11Q158.43-15.77 157.77-15.36 157.11-14.94 156.43-14.79L156.43-14.79Q155.89-14.65 155.72-14.48 155.55-14.31 155.16-14.01L155.16-14.01 155.16-12.7 155.16-10.25Q155.16-9.77 155.16-9.25 155.16-8.74 155.11-8.2L155.11-8.2Q155.01-7.71 155.01-7.37L155.01-7.37 155.01-6.59Q155.26-6.69 155.5-6.76 155.75-6.84 155.99-6.93L155.99-6.93Q156.19-6.98 156.36-6.98 156.53-6.98 156.72-7.08L156.72-7.08Q156.97-7.13 157.11-7.18 157.26-7.23 157.46-7.32L157.46-7.32Q158.19-7.71 158.58-7.84 158.97-7.96 159.36-8.11L159.36-8.11Q160.19-8.4 160.97-8.72 161.75-9.03 162.53-9.33L162.53-9.33Q163.02-9.23 163.22-9.47L163.22-9.47Q163.46-9.42 163.63-9.38 163.8-9.33 164.05-9.33L164.05-9.33Q164.63-8.79 164.78-8.5 164.93-8.2 165.17-7.96L165.17-7.96Q165.41-7.52 165.51-7.52L165.51-7.52Q165.51-7.42 165.37-7.2 165.22-6.98 165.17-6.84ZM196.17-13.33L196.17-13.33Q196.27-13.09 196.9-12.28 197.54-11.47 198.34-10.52 199.15-9.57 199.93-8.69 200.71-7.81 201.01-7.42L201.01-7.42Q201.93-6.05 202.91-4.74 203.89-3.42 204.77-2L204.77-2Q205.01-1.76 205.16-1.39 205.3-1.03 205.3-0.63L205.3-0.63Q205.3-0.2 205.08-0.17 204.86-0.15 204.62-0.05L204.62-0.05Q204.13 0.29 203.74 0.34 203.35 0.39 203.11 0.39L203.11 0.39Q202.57 0.39 201.93 0.37 201.3 0.34 200.86 0.44L200.86 0.44Q200.71 0.49 200.52 0.61 200.32 0.73 200.22 0.73L200.22 0.73Q199.83 0.73 199.66 0.61 199.49 0.49 199.2 0.39L199.2 0.39Q198.81-0.05 198.49-0.54 198.17-1.03 197.83-1.51L197.83-1.51Q197.54-1.86 197.2-2.12 196.86-2.39 196.56-2.78L196.56-2.78Q195.78-3.91 194.98-4.93 194.17-5.96 193.34-6.98L193.34-6.98Q192.95-7.52 192.48-8.01 192.02-8.5 191.63-8.98L191.63-8.98Q191.24-9.52 190.9-10.11 190.56-10.69 190.17-11.23L190.17-11.23Q189.87-11.72 189.34-12.43 188.8-13.13 188.21-13.87 187.63-14.6 187.02-15.26 186.41-15.92 185.97-16.26L185.97-16.26Q185.97-16.6 185.77-16.75 185.58-16.89 185.33-17.09L185.33-17.09Q185.23-17.33 185.09-17.55 184.94-17.77 184.94-18.07L184.94-18.07Q184.94-18.26 184.99-18.41 185.04-18.55 185.09-18.7L185.09-18.7Q185.19-18.9 185.21-19.07 185.23-19.24 185.33-19.43L185.33-19.43Q185.58-20.07 186.04-20.56 186.5-21.04 186.75-21.68L186.75-21.68Q186.8-21.88 186.8-22.05 186.8-22.22 186.89-22.41L186.89-22.41Q187.04-22.71 187.33-23 187.63-23.29 187.87-23.63L187.87-23.63Q188.11-24.07 188.36-24.51 188.6-24.95 188.85-25.39L188.85-25.39Q189.53-26.51 190.36-27.56 191.19-28.61 191.92-29.64L191.92-29.64Q192.61-30.62 193.19-31.57 193.78-32.52 194.46-33.5L194.46-33.5Q194.8-33.98 195.24-34.59 195.68-35.21 196.15-35.79 196.61-36.38 197.1-36.89 197.59-37.4 198.08-37.65L198.08-37.65Q198.91-37.74 199.15-37.38 199.39-37.01 199.83-37.01L199.83-37.01Q200.52-36.87 200.76-36.57 201.01-36.28 201.25-36.04L201.25-36.04Q201.88-36.04 202.32-35.79 202.76-35.55 203.2-35.06L203.2-35.06Q203.01-34.52 202.69-34.08 202.37-33.64 202.13-33.15L202.13-33.15Q201.74-33.01 201.57-32.67 201.4-32.32 201.05-32.08L201.05-32.08Q200.52-31.25 199.98-30.44 199.44-29.64 198.91-28.91L198.91-28.91Q198.66-28.61 198.34-28.44 198.03-28.27 197.83-27.93L197.83-27.93Q197.73-27.78 197.69-27.61 197.64-27.44 197.54-27.29L197.54-27.29Q196.95-26.37 196.22-25.49 195.49-24.61 194.95-23.63L194.95-23.63Q194.71-23.29 194.56-22.92 194.41-22.56 194.22-22.22L194.22-22.22Q194.02-21.92 193.66-21.39 193.29-20.85 192.92-20.29 192.56-19.73 192.29-19.21 192.02-18.7 192.02-18.36L192.02-18.36Q192.07-18.12 192.66-17.38 193.24-16.65 193.95-15.82 194.66-14.99 195.32-14.26 195.98-13.53 196.17-13.33ZM209.74-0.63L209.4-0.78Q209.25-0.68 209.11-0.59 208.96-0.49 208.82-0.39L208.82-0.39Q208.28-0.1 207.84-0.07 207.4-0.05 206.86 0.44L206.86 0.44Q206.67 0.2 206.57 0.2 206.47 0.2 206.23 0.2L206.23 0.2Q205.59 0.2 205.5-0.15L205.5-0.15Q205.3-0.1 204.88 0.1 204.47 0.29 204.27 0.39L204.27 0.39Q204.71-0.24 204.86-0.59 205.01-0.93 205.03-1.22 205.06-1.51 205.08-1.83 205.1-2.15 205.3-2.73L205.3-2.73Q205.4-2.93 205.45-3.13 205.5-3.32 205.59-3.56L205.59-3.56Q205.84-4.3 206.01-5.22 206.18-6.15 206.57-6.84L206.57-6.84Q206.57-7.67 206.94-8.4 207.3-9.13 207.55-9.91L207.55-9.91Q207.64-10.21 207.81-10.5 207.99-10.79 208.08-11.08L208.08-11.08Q208.28-11.57 208.4-12.04 208.52-12.5 208.67-12.94L208.67-12.94Q209.06-14.36 209.45-15.75 209.84-17.14 210.18-18.55L210.18-18.55Q210.23-18.8 210.3-19.09 210.38-19.38 210.48-19.63L210.48-19.63Q210.72-20.36 210.79-21.12 210.87-21.88 211.26-22.56L211.26-22.56Q211.21-22.9 211.28-23.19 211.35-23.49 211.45-23.83 211.55-24.17 211.65-24.46 211.75-24.76 211.79-24.9L211.79-24.9Q212.04-25.54 212.16-26.05 212.28-26.56 212.67-27.15L212.67-27.15Q212.67-27.15 212.82-27.66 212.97-28.17 213.16-28.81 213.36-29.44 213.5-30 213.65-30.57 213.65-30.66L213.65-30.66Q213.75-31.05 213.82-31.4 213.89-31.74 213.99-32.13L213.99-32.13Q214.09-32.37 214.19-32.54 214.28-32.71 214.38-32.96L214.38-32.96Q214.53-33.5 214.67-34.28 214.82-35.06 215.07-35.5L215.07-35.5Q215.21-35.84 215.63-36.06 216.04-36.28 216.33-36.52L216.33-36.52Q217.21-36.43 217.63-36.62 218.04-36.82 218.43-37.11L218.43-37.11Q218.68-37.06 218.9-36.99 219.12-36.91 219.36-36.91L219.36-36.91Q220.29-35.89 220.66-34.81 221.02-33.74 221.36-32.67L221.36-32.67Q221.51-32.13 221.66-31.62 221.8-31.1 222-30.62L222-30.62Q222.05-30.47 222.15-30.3 222.24-30.13 222.34-29.93L222.34-29.93Q222.58-29.54 222.76-29.1 222.93-28.66 223.07-28.22L223.07-28.22Q223.37-27.88 223.51-27.42 223.66-26.95 223.78-26.49 223.9-26.03 224.05-25.61 224.2-25.2 224.49-24.9L224.49-24.9Q224.59-24.37 224.83-23.85 225.08-23.34 225.17-22.75L225.17-22.75Q225.47-22.36 225.86-21.26 226.25-20.17 226.64-18.9 227.03-17.63 227.37-16.46 227.71-15.28 227.86-14.79L227.86-14.79Q227.96-14.4 228.25-13.79 228.54-13.18 228.79-12.7L228.79-12.7Q228.98-12.16 229.2-11.57 229.42-10.99 229.57-10.45L229.57-10.45Q229.67-9.91 229.79-9.42 229.91-8.94 230.06-8.4L230.06-8.4Q230.15-8.06 230.35-7.79 230.54-7.52 230.64-7.13L230.64-7.13Q230.84-6.74 230.91-6.4 230.98-6.05 231.23-5.66L231.23-5.66Q231.18-5.13 231.28-4.98 231.37-4.83 231.47-4.64L231.47-4.64Q231.67-3.61 231.91-3 232.16-2.39 232.16-1.71L232.16-1.71Q232.16-1.12 231.94-0.98 231.72-0.83 231.37-0.49L231.37-0.49Q230.98-0.15 230.71 0.05 230.45 0.24 229.91 0.24L229.91 0.24Q229.32 0.2 229.2 0.42 229.08 0.63 229.03 0.73L229.03 0.73Q228.44 0.68 228.27 0.71 228.1 0.73 227.93 0.73 227.76 0.73 227.59 0.81 227.42 0.88 227.22 1.12L227.22 1.12Q226.88 0.73 226.56 0.42 226.25 0.1 226-0.29L226-0.29Q226-1.12 225.78-2.25 225.56-3.37 225.32-4L225.32-4Q224.83-5.27 224.42-6.49 224-7.71 223.61-8.98L223.61-8.98Q223.46-9.52 223.29-9.96 223.12-10.4 222.93-10.89L222.93-10.89Q223.02-10.5 223-10.08 222.98-9.67 222.73-9.28L222.73-9.28Q222.63-9.18 222.44-9.03 222.24-8.89 222.24-8.79L222.24-8.79Q221.66-8.3 221.22-7.86L221.22-7.86Q221.27-6.98 220.97-6.64 220.68-6.3 220.34-6.01L220.34-6.01Q219.51-5.96 219.31-6.1 219.12-6.25 218.78-6.3L218.78-6.3Q218.58-6.35 218.39-6.32 218.19-6.3 218-6.3L218-6.3Q217.6-6.3 217.26-6.49L217.26-6.49Q217.12-6.59 217.04-6.69 216.97-6.79 216.87-6.88L216.87-6.88Q216.48-7.28 215.97-7.54 215.46-7.81 214.97-8.01L214.97-8.01Q214.58-8.35 214.16-8.72 213.75-9.08 213.31-9.33L213.31-9.33Q212.92-8.4 212.7-7.69 212.48-6.98 212.18-6.3L212.18-6.3Q211.65-4.64 211.31-3.39 210.96-2.15 210.52-0.88L210.52-0.88Q210.33-0.83 210.16-0.73 209.99-0.63 209.74-0.63L209.74-0.63ZM213.99-11.18L214.19-11.18Q214.58-11.87 214.89-11.94 215.21-12.01 215.46-12.3L215.46-12.3Q215.55-12.4 215.68-12.55 215.8-12.7 215.94-12.84L215.94-12.84Q216.09-12.94 216.29-13.04 216.48-13.13 216.63-13.28L216.63-13.28Q217.02-13.62 217.29-13.87 217.56-14.11 218.09-14.11L218.09-14.11Q218.92-14.11 219.46-13.7 220-13.28 220.78-13.13L220.78-13.13Q220.88-12.84 221.41-12.72 221.95-12.6 222.24-12.4L222.24-12.4Q221.75-13.62 221.49-14.87 221.22-16.11 220.83-17.33L220.83-17.33Q220.53-18.41 220.14-19.46 219.75-20.51 219.36-21.48L219.36-21.48Q219.02-22.46 218.78-23.39 218.53-24.32 218.14-25.2L218.14-25.2Q217.75-24.32 217.36-23.05 216.97-21.78 216.77-20.8L216.77-20.8Q216.77-20.36 216.73-20.12L216.73-20.12Q216.63-19.78 216.53-19.51 216.43-19.24 216.33-18.95L216.33-18.95Q215.7-17.04 215.19-15.09 214.67-13.13 213.99-11.18L213.99-11.18ZM256.27-23.54L256.27-23.54Q255.83-22.61 255.08-21.78 254.32-20.95 253.64-20.21L253.64-20.21Q253.1-19.68 252.71-19.04 252.32-18.41 251.83-17.87L251.83-17.87Q251.44-17.43 251.05-17.07 250.66-16.7 250.32-16.26L250.32-16.26Q250.07-16.06 249.85-15.87 249.63-15.67 249.44-15.38L249.44-15.38Q250.17-13.82 251.17-12.55 252.17-11.28 253.25-10.01L253.25-10.01Q253.78-9.38 254.32-8.81 254.86-8.25 255.25-7.62L255.25-7.62Q255.59-6.88 255.96-6.52 256.32-6.15 256.62-5.76L256.62-5.76Q256.91-5.27 257.13-4.91 257.35-4.54 257.74-4.2L257.74-4.2Q257.74-3.96 258.03-3.74 258.32-3.52 258.42-3.27L258.42-3.27Q258.42-3.03 258.45-2.88 258.47-2.73 258.47-2.64L258.47-2.64Q258.32-2.25 257.96-1.98 257.59-1.71 257.3-1.42L257.3-1.42Q256.81-1.42 256.47-1.12 256.13-0.83 255.54-0.83L255.54-0.83Q255.3-0.63 255.15-0.42 255-0.2 254.76 0L254.76 0Q254.37 0 254.05 0.22 253.73 0.44 253.34 0.54L253.34 0.54Q252.86 0.24 252.56-0.22 252.27-0.68 251.78-0.93L251.78-0.93Q251.73-1.17 251.61-1.34 251.49-1.51 251.39-1.71L251.39-1.71Q250.56-2.64 249.83-3.66 249.1-4.69 248.36-5.71L248.36-5.71Q247.97-6.15 247.56-6.57 247.14-6.98 246.75-7.47L246.75-7.47Q246.51-7.76 246.26-8.15 246.02-8.54 245.73-8.89L245.73-8.89Q245.39-9.18 245.14-9.57 244.9-9.96 244.56-10.21L244.56-10.21Q244.12-9.96 243.77-9.57 243.43-9.18 242.99-8.89L242.99-8.89Q242.6-8.54 242.24-8.2 241.87-7.86 241.48-7.57L241.48-7.57Q241.38-6.45 241.38-5.4 241.38-4.35 241.38-3.32L241.38-3.32Q241.38-2.49 241.36-1.73 241.33-0.98 241.14-0.2L241.14-0.2Q240.89-0.15 240.67-0.46 240.45-0.78 240.21-0.83L240.21-0.83Q240.01-0.78 239.89-0.63 239.77-0.49 239.53-0.59L239.53-0.59Q239.28-0.34 238.79-0.15L238.79-0.15Q238.55-0.15 238.26-0.07 237.96 0 237.72 0L237.72 0Q237.33 0 237.18-0.1L237.18-0.1Q236.69 0.24 236.38 0.27 236.06 0.29 235.86 0.29L235.86 0.29Q235.77-0.05 235.67-0.37 235.57-0.68 235.52-1.07L235.52-1.07Q235.38-1.27 235.3-1.51 235.23-1.76 235.13-2L235.13-2Q235.18-2.15 235.18-2.34 235.18-2.54 235.18-2.73L235.18-2.73Q235.18-3.56 235.13-4.35 235.08-5.13 235.18-5.96L235.18-5.96Q235.08-6.2 235.03-6.45 234.98-6.69 234.98-6.93L234.98-6.93Q234.98-7.08 235.01-7.28 235.03-7.47 235.13-7.57L235.13-7.57Q234.98-8.2 234.96-8.91 234.94-9.62 234.94-10.25L234.94-10.25Q234.94-10.6 235.01-10.96 235.08-11.33 235.08-11.72L235.08-11.72Q235.08-12.55 234.98-13.33 234.89-14.11 234.89-14.89L234.89-14.89Q234.94-15.43 234.94-15.72L234.94-15.72Q234.94-16.02 234.98-16.31 235.03-16.6 234.94-16.89L234.94-16.89Q234.98-17.14 235.06-17.26 235.13-17.38 235.13-17.63L235.13-17.63Q235.13-18.26 235.16-18.87 235.18-19.48 235.18-20.17L235.18-20.17Q235.18-20.65 235.2-21.12 235.23-21.58 235.23-22.12L235.23-22.12Q235.23-22.56 235.3-22.95 235.38-23.34 235.42-23.73L235.42-23.73Q235.47-24.17 235.47-24.58 235.47-25 235.47-25.39L235.47-25.39Q235.47-26.42 235.47-27.47 235.47-28.52 235.38-29.54L235.38-29.54Q235.33-29.79 235.28-30.08 235.23-30.37 235.23-30.66L235.23-30.66Q235.13-31.59 235.08-32.57 235.03-33.54 234.89-34.52L234.89-34.52Q234.98-34.67 234.98-34.84 234.98-35.01 234.98-35.16L234.98-35.16Q234.98-35.4 234.98-35.62 234.98-35.84 234.94-36.08L234.94-36.08Q235.03-36.18 235.13-36.3 235.23-36.43 235.33-36.52L235.33-36.52Q235.62-36.52 235.94-36.5 236.25-36.47 236.5-36.28L236.5-36.28Q236.74-36.38 237.06-36.5 237.38-36.62 237.62-36.62L237.62-36.62Q238.01-36.62 238.21-36.43L238.21-36.43Q238.45-36.52 238.48-36.65 238.5-36.77 238.84-36.77L238.84-36.77Q239.48-36.82 239.75-36.82 240.01-36.82 240.26-36.87L240.26-36.87Q240.4-36.77 240.5-36.62 240.6-36.47 240.7-36.33L240.7-36.33Q241.77-35.94 242.43-35.23 243.09-34.52 243.92-34.03L243.92-34.03Q244.12-33.89 244.31-33.79 244.51-33.69 244.7-33.59L244.7-33.59Q245.14-33.3 245.58-32.96 246.02-32.62 246.51-32.37L246.51-32.37Q247-32.13 247.07-32.1 247.14-32.08 247.19-31.98L247.19-31.98Q248.27-31.59 249.12-30.93 249.98-30.27 250.95-29.74L250.95-29.74Q251.29-29.54 251.81-29.35 252.32-29.15 252.83-28.93 253.34-28.71 253.81-28.47 254.27-28.22 254.52-27.93L254.52-27.93Q255.05-27.39 255.47-27.17 255.88-26.95 256.27-26.66L256.27-26.66 256.32-25.34Q256.32-25 256.25-24.71 256.18-24.41 256.18-24.07L256.18-24.07Q256.18-23.83 256.27-23.54ZM249.58-24.8L249.58-24.8Q249.05-25.1 248.51-25.37 247.97-25.63 247.58-26.12L247.58-26.12Q247.24-26.22 246.36-26.59 245.48-26.95 244.58-27.37 243.68-27.78 242.92-28.1 242.16-28.42 242.06-28.42L242.06-28.42Q241.92-28.37 241.92-27.78 241.92-27.2 241.92-26.51 241.92-25.83 241.92-25.2 241.92-24.56 241.92-24.41L241.92-24.41Q241.92-23.49 241.87-22.61 241.82-21.73 241.72-20.8L241.72-20.8Q241.63-20.65 241.58-20.53 241.53-20.41 241.48-20.26L241.48-20.26Q241.38-19.58 241.38-18.46 241.38-17.33 241.38-16.65L241.38-16.65Q241.38-16.31 241.38-16.02 241.38-15.72 241.43-15.33L241.43-15.33Q241.67-15.33 241.77-15.45 241.87-15.58 242.11-15.67L242.11-15.67Q242.75-16.36 243.38-16.99 244.02-17.63 244.7-18.31L244.7-18.31Q244.99-18.6 245.29-18.95 245.58-19.29 245.92-19.53L245.92-19.53Q246.17-19.82 246.36-20.09 246.56-20.36 246.8-20.61L246.8-20.61Q247.48-21.34 248.22-22.05 248.95-22.75 249.44-23.63L249.44-23.63Q249.78-23.88 250.07-24.41L250.07-24.41Q249.73-24.46 249.58-24.8ZM271.6-36.33L271.6-36.33Q271.95-35.69 271.95-34.86L271.95-34.86Q271.95-34.13 271.65-33.3 271.36-32.47 270.72-32.03L270.72-32.03Q270.29-31.05 269.87-30.44 269.45-29.83 269.06-29.25L269.06-29.25Q268.92-28.91 268.77-28.59 268.62-28.27 268.38-27.93L268.38-27.93Q268.23-27.69 267.75-26.95 267.26-26.22 266.74-25.42 266.23-24.61 265.84-23.88 265.45-23.14 265.45-22.95L265.45-22.95Q265.45-22.75 265.91-22.46 266.38-22.17 266.53-22.02L266.53-22.02Q266.77-21.78 266.99-21.53 267.21-21.29 267.45-21.04L267.45-21.04Q267.99-20.61 268.5-20.17 269.02-19.73 269.55-19.19L269.55-19.19Q270.58-18.26 271.7-17.43 272.82-16.6 273.7-15.48L273.7-15.48Q274.53-15.23 274.78-14.31 275.02-13.38 274.92-12.55L274.92-12.55Q275.02-12.4 275.09-12.26 275.17-12.11 275.27-11.91L275.27-11.91Q275.27-11.13 275.05-10.77 274.83-10.4 274.58-9.86L274.58-9.86Q274.34-9.38 274.26-8.89 274.19-8.4 273.95-8.01L273.95-8.01Q273.85-7.86 273.68-7.76 273.51-7.67 273.41-7.47L273.41-7.47Q273.21-7.13 273.09-6.67 272.97-6.2 272.78-5.81L272.78-5.81Q272.63-5.42 272.41-5.03 272.19-4.64 272.04-4.25L272.04-4.25Q271.95-4 271.87-3.66 271.8-3.32 271.41-3.17L271.41-3.17Q271.16-2.29 270.75-1.46 270.33-0.63 270.09 0.24L270.09 0.24Q269.65 0.39 268.99 0.81 268.33 1.22 267.94 1.22L267.94 1.22Q267.79 1.22 267.7 1.07 267.6 0.93 267.4 0.83L267.4 0.83Q267.31 0.78 267.14 0.83 266.96 0.88 266.87 0.88L266.87 0.88Q266.62 0.88 266.5 0.68 266.38 0.49 266.18 0.39L266.18 0.39Q266.04 0.44 265.89 0.49 265.74 0.54 265.6 0.54L265.6 0.54Q265.26 0.54 265.21 0.37 265.16 0.2 264.91 0.05L264.91 0.05Q264.33-0.24 264.23-0.49 264.13-0.73 263.94-0.83L263.94-0.83Q264.28-2.1 264.87-3.25 265.45-4.39 265.99-5.57L265.99-5.57Q266.13-5.96 266.35-6.3 266.57-6.64 266.77-7.03L266.77-7.03Q266.92-7.37 267.21-7.91 267.5-8.45 267.75-9.03 267.99-9.62 268.19-10.13 268.38-10.64 268.38-10.99L268.38-10.99Q268.38-11.67 267.99-12.01L267.99-12.01Q266.57-13.18 265.33-14.4 264.08-15.63 262.72-16.89L262.72-16.89Q261.84-17.68 260.81-18.51L260.81-18.51Q260.62-18.65 260.52-18.95 260.42-19.24 260.23-19.48L260.23-19.48Q260.13-19.68 259.93-19.78 259.74-19.87 259.64-20.07L259.64-20.07Q259.49-20.26 259.45-20.53 259.4-20.8 259.15-20.95L259.15-20.95Q258.91-21.19 258.57-21.24 258.22-21.29 257.98-21.53L257.98-21.53Q258.13-21.68 258.1-21.85 258.08-22.02 258.08-22.17L258.08-22.17Q258.08-22.51 258.37-22.66 258.66-22.8 258.66-23.19L258.66-23.19Q258.86-23.58 258.96-23.68L258.96-23.68Q259.49-25 260.18-26.22 260.86-27.44 261.59-28.66L261.59-28.66Q261.84-29.05 262.06-29.42 262.28-29.79 262.52-30.18L262.52-30.18Q262.67-30.52 262.79-30.79 262.91-31.05 263.16-31.3L263.16-31.3Q263.84-32.08 264.3-32.76 264.77-33.45 265.01-34.42L265.01-34.42Q265.06-34.67 265.21-35.11 265.35-35.55 265.57-35.99 265.79-36.43 266.04-36.77 266.28-37.11 266.57-37.11L266.57-37.11Q266.82-37.11 267.28-36.91 267.75-36.72 268.09-36.62L268.09-36.62Q268.38-36.52 268.7-36.45 269.02-36.38 269.31-36.38L269.31-36.38Q269.5-36.38 269.7-36.5 269.89-36.62 270.14-36.62L270.14-36.62Q270.53-36.62 270.87-36.5 271.21-36.38 271.6-36.33Z" opacity="1" transform="matrix(1,0,0,1,0,0)" fill="#130912" class="wordmark-text-0" data-fill-palette-color="primary" id="text-0"></path></svg></g></svg></g></svg></g></svg></g><g><svg viewBox="0 0 244.43136000000004 81.99972833091202" height="81.99972833091202" width="244.43136000000004"><g><svg version="1.0" xmlns="http://www.w3.org/2000/svg" xmlns:xlink="http://www.w3.org/1999/xlink" x="0" y="0" viewBox="0 0 99.99958801269531 33.547000885009766" enable-background="new 0 0 99.999 33.547" xml:space="preserve" width="244.43136000000004" height="81.99972833091202" class="icon-icon-0" data-fill-palette-color="accent" id="icon-0"><path d="M99.212 10.535L79.778 8.898 75.278 0H40.965l-7.417 9.819L2.454 11.456 0 24.445h7.105c0.487-4.882 4.606-8.694 9.617-8.694 5.01 0 9.129 3.812 9.616 8.694h44.283c0.487-4.882 4.606-8.694 9.616-8.694 4.988 0 9.093 3.778 9.61 8.628l8.75-1.264C98.599 23.116 101.29 13.016 99.212 10.535zM55.768 10.765H35.21l6.722-8.898h13.836V10.765zM57.635 10.765V1.866h12.988l4.501 8.898H57.635z" fill="#0074d9" data-fill-palette-color="accent"></path><path d="M16.723 17.285c-4.491 0-8.132 3.64-8.132 8.131s3.641 8.131 8.132 8.131c4.49 0 8.131-3.64 8.131-8.131S21.213 17.285 16.723 17.285zM16.723 30.787c-2.966 0-5.37-2.404-5.37-5.37s2.404-5.37 5.37-5.37c2.965 0 5.369 2.404 5.369 5.37S19.688 30.787 16.723 30.787z" fill="#0074d9" data-fill-palette-color="accent"></path><path d="M80.238 17.285c-4.49 0-8.131 3.64-8.131 8.131s3.641 8.131 8.131 8.131c4.491 0 8.132-3.64 8.132-8.131S84.729 17.285 80.238 17.285zM80.238 30.787c-2.965 0-5.369-2.404-5.369-5.37s2.404-5.37 5.369-5.37c2.966 0 5.37 2.404 5.37 5.37S83.204 30.787 80.238 30.787z" fill="#0074d9" data-fill-palette-color="accent"></path></svg></g></svg></g></svg></g><defs></defs></svg><rect width="395.5199999999999" height="49.62584879551941" fill="none" stroke="none" visibility="hidden"></rect></g></svg></g></svg>